<?xml version="1.0" encoding="UTF-8" standalone="no" ?>
<!DOCTYPE svg PUBLIC "-//W3C//DTD SVG 1.1//EN" "http://www.w3.org/Graphics/SVG/1.1/DTD/svg11.dtd">
<svg xmlns="http://www.w3.org/2000/svg" xmlns:xlink="http://www.w3.org/1999/xlink" version="1.1" width="620" height="200" viewBox="0 0 620 200" xml:space="preserve">
<desc>Created with Fabric.js 4.6.0</desc>
<defs>
</defs>
<g transform="matrix(1 0 0 1 310 100)" id="MMPN3u9h5MQkDUkUyLz7m"  >
<g style="" vector-effect="non-scaling-stroke"   >
		<g transform="matrix(4.69 0 0 4.69 -52.07 -0.01)" id="SqrzgNjyajfXwaAN4Hkg6"  >
<path style="stroke: none; stroke-width: 0.8; stroke-dasharray: none; stroke-linecap: butt; stroke-dashoffset: 0; stroke-linejoin: miter; stroke-miterlimit: 4; fill: rgb(0,0,0); fill-rule: nonzero; opacity: 1;" vector-effect="non-scaling-stroke"  transform=" translate(-55.03, -275.58)" d="M 59.958989 272.57497 L 50.11764 272.57497 L 50.11764 264.17035 L 43.879156 264.17035 L 43.879156 286.98645 L 50.11764 286.98645 L 50.11764 277.84623999999997 L 59.958989 277.84623999999997 L 59.958989 286.98645 L 66.18496 286.98645 L 66.18496 264.17035 L 59.958989 264.17035 z M 59.958989 272.57497" stroke-linecap="round" />
</g>
		<g transform="matrix(4.69 0 0 4.69 65.36 -0.19)" id="BD-y6l7qdk-PzJ4Jsq_af"  >
<path style="stroke: none; stroke-width: 0.8; stroke-dasharray: none; stroke-linecap: butt; stroke-dashoffset: 0; stroke-linejoin: miter; stroke-miterlimit: 4; fill: rgb(0,0,0); fill-rule: nonzero; opacity: 1;" vector-effect="non-scaling-stroke"  transform=" translate(-80.1, -275.54)" d="M 75.165514 272.90364 C 75.688248 269.82352 77.39108300000001 268.21459 80.151915 268.21459 C 82.944057 268.21459 84.84095 270.11149 84.931737 272.90364 z M 80.18635 263.56936 C 73.32181800000001 263.56936 68.717292 268.30849 68.717292 275.41720000000004 C 68.717292 282.81075000000004 73.26860500000001 287.50921000000005 80.383549 287.50921000000005 C 86.067993 287.50921000000005 89.96509900000001 284.90173000000004 91.426895 279.96538000000004 L 84.693837 279.96538000000004 C 84.083448 281.76838000000004 82.65920700000001 282.67303000000004 80.518151 282.67303000000004 C 77.300307 282.67303000000004 75.365843 280.76672 75.20307100000001 277.45184000000006 L 91.426895 277.45184000000006 C 91.426895 276.6505000000001 91.473825 276.3687800000001 91.473825 275.98690000000005 C 91.473825 268.30849000000006 87.11658800000001 263.5693600000001 80.186322 263.5693600000001" stroke-linecap="round" />
</g>
		<g transform="matrix(4.69 0 0 4.69 164.4 -1.14)" id="hvS4DSD8ptPEFMSsngNG1"  >
<path style="stroke: none; stroke-width: 0.8; stroke-dasharray: none; stroke-linecap: butt; stroke-dashoffset: 0; stroke-linejoin: miter; stroke-miterlimit: 4; fill: rgb(0,0,0); fill-rule: nonzero; opacity: 1;" vector-effect="non-scaling-stroke"  transform=" translate(-101.23, -275.33)" d="M 102.07897 263.97315 C 99.872181 264.41137999999995 94.209645 266.11422 94.209645 274.75359999999995 L 94.209645 286.98332999999997 L 100.52013 286.98332999999997 L 100.52013 276.88214 C 100.52013 273.14154 101.03975 271.38549 102.59859 270.25236 C 103.55330000000001 269.48858 104.93371 269.06600000000003 106.53638000000001 269.06600000000003 C 107.19998000000001 269.06600000000003 107.48483 269.1161 108.24547000000001 269.25381000000004 L 108.24547000000001 264.07645 C 108.24547000000001 264.07645 105.72878000000001 263.25946000000005 102.07897000000001 263.97314" stroke-linecap="round" />
</g>
		<g transform="matrix(4.69 0 0 4.69 255.64 -0.22)" id="8R2vJwJ7Uj3ZvlXDS2MLx"  >
<path style="stroke: none; stroke-width: 0.8; stroke-dasharray: none; stroke-linecap: butt; stroke-dashoffset: 0; stroke-linejoin: miter; stroke-miterlimit: 4; fill: rgb(0,0,0); fill-rule: nonzero; opacity: 1;" vector-effect="non-scaling-stroke"  transform=" translate(-120.7, -275.54)" d="M 120.72557 282.76067 C 117.40131000000001 282.76067 115.46058000000001 280.06242000000003 115.46058000000001 275.55806 C 115.46058000000001 271.00674000000004 117.36061000000001 268.35232 120.72557 268.35232 C 124.04046000000001 268.35232 125.94049000000001 270.95978 125.94049000000001 275.51111000000003 C 125.94049000000001 280.11251000000004 124.04046000000001 282.76067 120.72557 282.76067 M 120.72557 263.56623 C 113.65132 263.56923 109.10001 268.25841 109.10001 275.55806 C 109.10001 282.80762 113.65132 287.50607 120.72557 287.50607 C 127.73410000000001 287.50607 132.29167 282.80762000000004 132.29167 275.55806 C 132.29167 268.25841 127.73410000000001 263.56623 120.72557 263.56623" stroke-linecap="round" />
</g>
		<g transform="matrix(4.69 0 0 4.69 -207.3 -52.26)" id="Ffb_fg986yi_SXyI3PX7Z"  >
<path style="stroke: none; stroke-width: 0.8; stroke-dasharray: none; stroke-linecap: butt; stroke-dashoffset: 0; stroke-linejoin: miter; stroke-miterlimit: 4; fill: rgb(0,0,0); fill-rule: nonzero; opacity: 1;" vector-effect="non-scaling-stroke"  transform=" translate(-21.92, -264.42)" d="M 26.794516 261.36569 L 17.037683 254.15680999999998 L 17.037683 274.69099 L 26.794516 267.92661 z M 26.794516 261.36569" stroke-linecap="round" />
</g>
		<g transform="matrix(4.69 0 0 4.69 -207.3 37.97)" id="edYc1bZWhF99jBO7eSvJN"  >
<path style="stroke: none; stroke-width: 0.8; stroke-dasharray: none; stroke-linecap: butt; stroke-dashoffset: 0; stroke-linejoin: miter; stroke-miterlimit: 4; fill: rgb(0,0,0); fill-rule: nonzero; opacity: 1;" vector-effect="non-scaling-stroke"  transform=" translate(-21.92, -283.67)" d="M 26.794516 290.72706 L 26.794516 276.62233 L 17.037683 283.63712 z M 26.794516 290.72706" stroke-linecap="round" />
</g>
		<g transform="matrix(4.69 0 0 4.69 -287.13 14.71)" id="av8rmNjvIGPKLRLq7QrnM"  >
<path style="stroke: none; stroke-width: 0.8; stroke-dasharray: none; stroke-linecap: butt; stroke-dashoffset: 0; stroke-linejoin: miter; stroke-miterlimit: 4; fill: rgb(0,0,0); fill-rule: nonzero; opacity: 1;" vector-effect="non-scaling-stroke"  transform=" translate(-4.88, -278.71)" d="M 0 289.90693 L 9.7599667 297 L 9.7599667 267.6355 L 0 260.42662 Z M 0 289.90693" stroke-linecap="round" />
</g>
</g>
</g>
</svg>