<?xml version="1.0" encoding="UTF-8" standalone="no" ?>
<!DOCTYPE svg PUBLIC "-//W3C//DTD SVG 1.1//EN" "http://www.w3.org/Graphics/SVG/1.1/DTD/svg11.dtd">
<svg xmlns="http://www.w3.org/2000/svg" xmlns:xlink="http://www.w3.org/1999/xlink" version="1.1" width="620" height="200" viewBox="0 0 620 200" xml:space="preserve">
<desc>Created with Fabric.js 4.6.0</desc>
<defs>
</defs>
<g transform="matrix(2.03 0 0 2.03 310 100)" id="PwQ5mRtj_bhJ6sMWm2qSN"  >
<path style="stroke: none; stroke-width: 1; stroke-dasharray: none; stroke-linecap: butt; stroke-dashoffset: 0; stroke-linejoin: miter; stroke-miterlimit: 4; fill: rgb(0,0,0); fill-rule: nonzero; opacity: 1;" vector-effect="non-scaling-stroke"  transform=" translate(-153.4, -20.6)" d="M 98.3 6.8 L 89 6.8 L 89 6.8999999999999995 C 89.3 7.3999999999999995 89.5 8.1 89.5 8.799999999999999 C 89.5 9.899999999999999 88.8 11.899999999999999 88.6 12.799999999999999 L 82.69999999999999 29.799999999999997 C 81.89999999999999 31.999999999999996 81.79999999999998 32.599999999999994 80.39999999999999 34.699999999999996 L 80.39999999999999 34.8 L 88.1 34.8 L 88.1 34.699999999999996 C 87.69999999999999 33.99999999999999 87.5 33.4 87.5 32.699999999999996 C 87.5 31.599999999999994 88 30.099999999999994 88.3 29.299999999999997 L 88.7 28.099999999999998 L 97.10000000000001 28.099999999999998 C 97.10000000000001 28.099999999999998 97.60000000000001 29.599999999999998 98.00000000000001 30.499999999999996 C 98.30000000000001 31.299999999999997 98.40000000000002 32.099999999999994 98.40000000000002 32.599999999999994 C 98.40000000000002 33.199999999999996 98.30000000000003 33.699999999999996 98.00000000000001 34.699999999999996 L 98.00000000000001 34.8 L 109.20000000000002 34.8 L 109.20000000000002 34.699999999999996 C 108.00000000000001 33.199999999999996 107.40000000000002 31.499999999999996 106.40000000000002 28.699999999999996 L 98.3 6.8 z M 90.2 23.5 L 92.8 15.7 L 92.8 15.7 L 95.5 23.5 L 90.2 23.5 z M 75.6 28.6 C 75.6 31.1 75.8 33.4 76.6 34.7 L 76.6 34.800000000000004 L 65.6 34.800000000000004 L 65.6 34.7 C 66.69999999999999 32.800000000000004 66.5 30.900000000000002 66.5 28.700000000000003 L 66.5 24.1 L 66.5 23 L 65 20.1 L 59.7 10.200000000000001 C 59 8.8 58.400000000000006 7.900000000000001 57.300000000000004 6.900000000000001 L 57.300000000000004 6.8 L 66.9 6.8 L 66.9 6.8999999999999995 L 72.60000000000001 18.5 C 72.60000000000001 18.5 73.9 15.9 74.2 15.3 C 74.8 14.100000000000001 75.5 12.700000000000001 75.8 12.100000000000001 C 76.3 11.200000000000001 76.8 9.900000000000002 76.8 8.900000000000002 C 76.8 7.900000000000002 76.5 7.4 76.2 7 L 76.2 6.8 L 83.8 6.8 L 83.8 6.8999999999999995 L 76.1 22.099999999999998 L 75.5 23.2 L 75.6 28.6 L 75.6 28.6 z M 130.9 34.8 L 111.2 34.8 L 111.2 34.699999999999996 C 112 32.9 112.10000000000001 31.399999999999995 112.10000000000001 28.699999999999996 L 112.10000000000001 12.9 C 112.10000000000001 9.600000000000001 111.80000000000001 8.3 111.2 7 L 111.2 6.9 L 121.9 6.9 L 121.9 7 C 121.2 8.9 121.10000000000001 10 121.10000000000001 13 L 121.10000000000001 29.1 C 122.30000000000001 29.3 123.7 29.5 125.2 29.5 C 128.4 29.5 130.1 29.2 131.3 28.7 L 131.60000000000002 28.7 L 130.9 34.8 z M 44.3 6.1 C 35.599999999999994 6.1 29.599999999999998 11.5 29.599999999999998 19.1 C 29.599999999999998 30.200000000000003 41.4 31.8 45.5 28.200000000000003 L 44.8 26.800000000000004 C 41.199999999999996 27.500000000000004 38 24.800000000000004 38 18.700000000000003 C 38 13.800000000000002 40.6 10.700000000000003 44.2 10.700000000000003 C 48.400000000000006 10.700000000000003 51 14.900000000000002 51 21.000000000000004 C 51 27.900000000000006 47 33.1 39.6 33.1 C 31.1 33.1 24.700000000000003 26.400000000000002 20.700000000000003 19.700000000000003 C 25.1 18.000000000000004 27.700000000000003 14.700000000000003 27.700000000000003 10.200000000000003 C 27.700000000000003 4.400000000000003 23.300000000000004 0.3000000000000025 15.400000000000002 0.3000000000000025 L 0.40000000000000213 0.3000000000000025 L 0.40000000000000213 0.40000000000000246 C 1.0000000000000022 1.7000000000000024 1.300000000000002 4.100000000000002 1.300000000000002 7.400000000000002 L 1.300000000000002 28.700000000000003 C 1.300000000000002 31.400000000000002 1.200000000000002 32.900000000000006 0.400000000000002 34.7 L 0.400000000000002 34.800000000000004 L 11.500000000000002 34.800000000000004 L 11.500000000000002 34.7 C 10.800000000000002 33 10.600000000000001 30.700000000000003 10.600000000000001 28.700000000000003 C 10.600000000000001 25.400000000000002 10.600000000000001 22.800000000000004 10.600000000000001 22.800000000000004 C 10.700000000000001 22.800000000000004 11.8 22.800000000000004 12.000000000000002 22.800000000000004 C 19.700000000000003 34.10000000000001 28.5 38.800000000000004 37.9 38.800000000000004 C 51.5 38.800000000000004 59.5 30.200000000000003 59.5 20.700000000000003 C 59.5 12.6 53.4 6.1 44.3 6.1 z M 10.7 18.3 L 10.7 5.6 L 13.799999999999999 5.6 C 17.4 5.6 18.9 7.699999999999999 18.9 11.1 C 18.9 15.2 16.5 18.4 12.599999999999998 18.4 C 12 18.3 10.9 18.3 10.7 18.3 z M 197.2 6.9 C 196.6 8.200000000000001 196.29999999999998 9.600000000000001 196.29999999999998 12.8 L 196.29999999999998 30.2 C 196.39999999999998 32 196.49999999999997 33.2 197.2 34.6 L 197.2 34.7 L 196.29999999999998 34.7 L 194.49999999999997 34.7 L 190.69999999999996 34.7 C 189.29999999999995 34.1 187.79999999999995 32.400000000000006 185.79999999999995 30.300000000000004 C 184.19999999999996 28.600000000000005 176.69999999999996 19.900000000000006 176.69999999999996 19.900000000000006 L 176.59999999999997 19.900000000000006 C 176.59999999999997 19.900000000000006 176.59999999999997 28.100000000000005 176.59999999999997 28.200000000000006 C 174.39999999999998 28.400000000000006 171.79999999999995 29.000000000000007 169.79999999999995 29.500000000000007 L 169.79999999999995 27.700000000000006 L 169.79999999999995 12.700000000000006 C 169.79999999999995 9.400000000000006 169.49999999999994 8.100000000000007 168.89999999999995 6.800000000000006 L 168.89999999999995 6.7 L 174.49999999999994 6.7 L 176.79999999999995 6.7 L 189.49999999999994 22.1 L 189.49999999999994 22.1 L 189.49999999999994 12.900000000000002 C 189.49999999999994 9.600000000000001 189.19999999999993 8.300000000000002 188.59999999999994 7.000000000000002 L 188.59999999999994 6.9 L 194.49999999999994 6.9 L 197.2 6.9 L 197.2 6.9 z M 184.1 34.8 C 173 34.9 170.4 40.9 156.29999999999998 40.9 C 149.49999999999997 40.9 143.49999999999997 39.1 143.49999999999997 39.1 L 143.49999999999997 39 C 144.29999999999998 37.2 144.39999999999998 35.8 144.39999999999998 33.1 L 144.39999999999998 7.4 C 144.39999999999998 4.1000000000000005 144.09999999999997 1.7000000000000002 143.49999999999997 0.40000000000000036 L 143.49999999999997 0.3 L 166.19999999999996 0.3 L 166.89999999999995 6.6 L 166.89999999999995 6.6 C 165.19999999999996 5.8999999999999995 163.09999999999994 5.699999999999999 160.09999999999994 5.699999999999999 L 154.09999999999994 5.699999999999999 L 154.09999999999994 16.6 L 156.99999999999994 16.6 C 161.49999999999994 16.6 164.09999999999994 16.3 164.79999999999995 16.1 L 164.99999999999994 16.1 L 164.99999999999994 22.700000000000003 L 164.89999999999995 22.700000000000003 C 163.99999999999994 22.400000000000002 160.89999999999995 22.1 157.19999999999996 22.1 L 154.19999999999996 22.1 L 154.19999999999996 33 C 154.19999999999996 33 157.69999999999996 33.8 160.89999999999995 33.8 C 169.29999999999995 33.8 172.89999999999995 30.799999999999997 181.19999999999996 30.799999999999997 C 181.49999999999997 30.799999999999997 181.69999999999996 30.799999999999997 181.89999999999995 30.799999999999997 C 183.49999999999994 32.699999999999996 184.89999999999995 34.199999999999996 185.49999999999994 34.8 C 184.9 34.8 184.9 34.8 184.1 34.8 z M 232.4 12.9 L 232.4 28.8 C 232.4 31.5 232.5 33 233.3 34.8 L 233.3 34.9 L 222.5 34.9 L 222.5 34.8 C 223.3 33 223.4 31.499999999999996 223.4 28.799999999999997 L 223.4 12.9 C 223.4 9.600000000000001 223.1 8.3 222.5 7 L 222.5 6.9 L 233.3 6.9 L 233.3 7 C 232.7 8.3 232.4 9.6 232.4 12.9 z M 210.7 19 L 210.7 19 L 211.5 19 C 215.5 19 216.8 18.7 217.4 18.6 L 217.6 18.6 L 217.6 24.400000000000002 L 217.4 24.400000000000002 C 216.6 24.1 214.9 23.8 211.6 23.8 L 210.7 23.8 L 210.7 27.2 L 210.7 28.599999999999998 C 210.7 31.4 210.79999999999998 33.3 211.7 34.699999999999996 L 211.7 34.8 L 200.79999999999998 34.8 L 200.79999999999998 34.699999999999996 C 201.6 32.9 201.7 31.399999999999995 201.7 28.699999999999996 L 201.7 12.9 C 201.7 9.600000000000001 201.39999999999998 8.3 200.79999999999998 7 L 200.79999999999998 6.9 L 219.39999999999998 6.9 L 220.09999999999997 12.600000000000001 L 220 12.600000000000001 C 218.7 12.000000000000002 217 11.700000000000001 214.3 11.700000000000001 L 210.70000000000002 11.700000000000001 L 210.70000000000002 16.3 L 210.70000000000002 19 z M 256.9 29 L 256.2 34.8 L 243.29999999999998 34.8 L 243.29999999999998 34.8 L 237 34.8 L 237 34.699999999999996 C 237.8 32.9 237.9 31.399999999999995 237.9 28.699999999999996 L 237.9 12.9 C 237.9 9.600000000000001 237.6 8.3 237 7 L 237 6.9 L 255.6 6.9 L 256.3 12.600000000000001 L 256.2 12.600000000000001 C 254.89999999999998 12.000000000000002 253.2 11.700000000000001 250.5 11.700000000000001 L 246.9 11.700000000000001 L 246.9 18.1 L 246.9 18.1 L 246.9 18.1 L 247.6 18.1 C 251.6 18.1 252.9 17.8 253.5 17.700000000000003 L 253.7 17.700000000000003 L 253.7 23.500000000000004 L 253.5 23.500000000000004 C 252.7 23.200000000000003 251 22.900000000000002 247.7 22.900000000000002 L 246.79999999999998 22.900000000000002 L 246.79999999999998 29.5 C 248.1 29.7 248.99999999999997 29.8 250.49999999999997 29.8 C 253.89999999999998 29.8 255.09999999999997 29.6 256.5 29 C 256.5 29 256.9 29 256.9 29 z M 306.4 21.7 C 306.4 31.299999999999997 299.4 38.8 287.59999999999997 38.8 C 278.49999999999994 38.8 275.59999999999997 34.8 264.29999999999995 34.8 L 264.29999999999995 34.8 L 259.59999999999997 34.8 L 259.59999999999997 34.699999999999996 C 260.4 32.9 260.49999999999994 31.399999999999995 260.49999999999994 28.699999999999996 L 260.49999999999994 12.8 C 260.49999999999994 9.5 260.19999999999993 8.200000000000001 259.59999999999997 6.9 L 259.59999999999997 6.8 L 270.4 6.8 L 270.4 6.8999999999999995 C 269.79999999999995 8.2 269.5 10.299999999999999 269.5 12.899999999999999 L 269.5 29.9 C 276.2 29.9 279.2 31.9 285.1 31.9 C 293.3 31.9 297.3 27.4 297.3 21 C 297.3 15.5 294.5 11.4 289.6 11.4 C 288.70000000000005 11.4 287.40000000000003 11.4 286.40000000000003 11.4 L 286.40000000000003 28.700000000000003 C 283.40000000000003 28.800000000000004 279.90000000000003 28.400000000000002 277.40000000000003 27.500000000000004 L 277.40000000000003 12.8 C 277.40000000000003 9.5 277.1 8.200000000000001 276.50000000000006 6.9 L 276.50000000000006 6.8 L 289.20000000000005 6.8 C 299.7 6.8 306.4 13.3 306.4 21.7 z" stroke-linecap="round" />
</g>
</svg>