<?xml version="1.0" encoding="UTF-8" standalone="no" ?>
<!DOCTYPE svg PUBLIC "-//W3C//DTD SVG 1.1//EN" "http://www.w3.org/Graphics/SVG/1.1/DTD/svg11.dtd">
<svg xmlns="http://www.w3.org/2000/svg" xmlns:xlink="http://www.w3.org/1999/xlink" version="1.1" width="620" height="200" viewBox="0 0 620 200" xml:space="preserve">
<desc>Created with Fabric.js 4.6.0</desc>
<defs>
</defs>
<g transform="matrix(0.4 0 0 0.4 310 100)" id="litOA561-whMWWrdbxL_M"  >
<g style="" vector-effect="non-scaling-stroke"   >
		<g transform="matrix(12.19 0 0 -12.19 612.37 0.36)" id="tHMrdAgHYarUrmr7eyMWr"  >
<path style="stroke: none; stroke-width: 1; stroke-dasharray: none; stroke-linecap: butt; stroke-dashoffset: 0; stroke-linejoin: miter; stroke-miterlimit: 4; fill: rgb(0,0,0); fill-rule: nonzero; opacity: 1;" vector-effect="non-scaling-stroke"  transform=" translate(-4.39, -0.24)" d="M 0 0 L 5.622 0 L 2.785 4.457 L 0 0 Z M -9.282 -6.986 L -9.282 -5.047 L -7.322 -4.824 C -6.644 -4.7379999999999995 -6.357 -4.117 -6.273 -3.9749999999999996 L -1.3889999999999993 3.9750000000000005 C -0.992 4.6 -1.38 5.149 -1.891 5.206 L -4.457 5.508 L -4.457 7.4670000000000005 L 6.675 7.4670000000000005 C 7.3 7.4670000000000005 7.696 7.042000000000001 7.951 6.673 L 14.453 -3.266 C 14.965 -4.059 15.362 -4.6850000000000005 16.015 -4.771 L 18.061 -5 L 18.061 -6.986 L 5.539 -6.986 L 5.539 -5.026999999999999 L 7.129 -4.827999999999999 C 7.896 -4.744 8.520999999999999 -4.401999999999999 7.896 -3.4649999999999994 L 7.3 -2.5549999999999993 L -1.5900000000000007 -2.5549999999999993 L -2.271000000000001 -3.6639999999999993 C -2.6950000000000007 -4.343999999999999 -2.271000000000001 -4.744 -1.6170000000000009 -4.827999999999999 L -0.0270000000000008 -5.026999999999999 L -0.0270000000000008 -6.985999999999999 L -9.282000000000002 -6.985999999999999 z" stroke-linecap="round" />
</g>
		<g transform="matrix(12.19 0 0 -12.19 314.46 0.35)" id="OabjJrcFlTYlXR_0874aO"  >
<path style="stroke: none; stroke-width: 1; stroke-dasharray: none; stroke-linecap: butt; stroke-dashoffset: 0; stroke-linejoin: miter; stroke-miterlimit: 4; fill: rgb(0,0,0); fill-rule: nonzero; opacity: 1;" vector-effect="non-scaling-stroke"  transform=" translate(0.24, -4.44)" d="M 0 0 L -3.691 0 L -3.691 8.915 L 0 8.915 C 3.52 8.915 4.998 8.09 4.998 4.457 C 4.998 0.793 3.52 0 0 0 M 2.213 11.668 L -12.104 11.668 L -12.107 9.709 L -10.312999999999999 9.524 C -9.641 9.426 -9.37 8.943 -9.37 8.292 L -9.37 0.5099999999999998 C -9.37 -0.029000000000000248 -9.597999999999999 -0.5430000000000001 -10.193 -0.6270000000000002 L -12.115 -0.8770000000000002 L -12.115 -2.779 L 2.212999999999999 -2.7849999999999997 C 8.800999999999998 -2.7849999999999997 11.641 0.4240000000000004 11.641 4.654 C 11.641 8.459 8.801 11.668 2.212999999999999 11.668" stroke-linecap="round" />
</g>
		<g transform="matrix(12.19 0 0 -12.19 -618.87 0.41)" id="EE9smxFMmUQWgnri1rBaJ"  >
<path style="stroke: none; stroke-width: 1; stroke-dasharray: none; stroke-linecap: butt; stroke-dashoffset: 0; stroke-linejoin: miter; stroke-miterlimit: 4; fill: rgb(0,0,0); fill-rule: nonzero; opacity: 1;" vector-effect="non-scaling-stroke"  transform=" translate(-13.15, -7.23)" d="M 0 0 L 11.583 0 L 11.583 1.932 L 9.598 2.158 C 9.142000000000001 2.215 8.688 2.4979999999999998 8.688 3.4669999999999996 L 8.688 5.792999999999999 L 17.604 5.792999999999999 L 17.604 3.5779999999999994 C 17.604 2.9279999999999995 17.49 2.3009999999999993 16.724 2.2149999999999994 L 14.707 1.9859999999999993 L 14.707 -6.661338147750939e-16 L 26.292 -6.661338147750939e-16 L 26.292 1.9859999999999993 L 24.247 2.2149999999999994 C 23.851 2.27 23.396 2.584 23.396 3.408 L 23.396 10.933 C 23.396 11.7 23.679000000000002 12.211 24.275000000000002 12.267 L 26.292 12.494 L 26.292 14.453 L 14.707 14.453 L 14.707 12.521999999999998 L 16.724 12.266999999999998 C 17.405 12.181999999999997 17.604 11.641999999999998 17.604 10.932999999999998 L 17.604 8.689999999999998 L 8.687999999999999 8.689999999999998 L 8.687999999999999 10.960999999999999 C 8.687999999999999 11.812999999999999 9.028999999999998 12.210999999999999 9.624999999999998 12.267 L 11.582999999999998 12.494 L 11.582999999999998 14.453 L 0.026999999999999247 14.453 L 0.026999999999999247 12.494 L 1.9589999999999992 12.267 C 2.7269999999999994 12.181999999999999 2.923999999999999 11.613999999999999 2.895999999999999 10.875 L 2.895999999999999 3.551 C 2.896 2.727 2.669 2.242 1.931 2.158 L 0 1.932 L 0 0 Z" stroke-linecap="round" />
</g>
		<g transform="matrix(12.19 0 0 -12.19 -307.24 0.05)" id="za9A3oElWrSsRe8N1-ZjY"  >
<path style="stroke: none; stroke-width: 1; stroke-dasharray: none; stroke-linecap: butt; stroke-dashoffset: 0; stroke-linejoin: miter; stroke-miterlimit: 4; fill: rgb(0,0,0); fill-rule: nonzero; opacity: 1;" vector-effect="non-scaling-stroke"  transform=" translate(0, 4.98)" d="M 0 0 C -3.292 0 -5.167 -1.222 -5.167 -4.969 C -5.167 -8.773 -3.292 -9.998000000000001 0 -9.998000000000001 C 3.294 -9.998000000000001 5.169 -8.773000000000001 5.169 -4.969000000000001 C 5.169 -1.222 3.294 0 0 0 M -11.81 -4.941 C -11.81 -0.399 -8.147 2.782 0.028999999999999915 2.782 C 8.151 2.782 11.814 -0.399 11.814 -4.941 C 11.814 -9.597999999999999 8.151 -12.75 0.028999999999999915 -12.75 C -8.147 -12.75 -11.81 -9.597999999999999 -11.81 -4.941" stroke-linecap="round" />
</g>
		<g transform="matrix(12.19 0 0 -12.19 -0.22 0.41)" id="nuTA4ivH2MFioc_VUD8zt"  >
<path style="stroke: none; stroke-width: 1; stroke-dasharray: none; stroke-linecap: butt; stroke-dashoffset: 0; stroke-linejoin: miter; stroke-miterlimit: 4; fill: rgb(0,0,0); fill-rule: nonzero; opacity: 1;" vector-effect="non-scaling-stroke"  transform=" translate(-12.71, -7.23)" d="M 0 0 L 9.257 0 L 9.257 1.932 L 7.268 2.158 C 6.699 2.215 6.359 2.693 6.359 3.352 L 6.359 10.706 L 14.056000000000001 0.5679999999999996 C 14.309 0.227 14.792 0 15.246 0 L 22.515 0 L 22.515 10.961 C 22.515 11.475 22.652 12.179 23.396 12.267 L 25.41 12.494 L 25.41 14.453 L 16.155 14.453 L 16.155 12.521999999999998 L 18.172 12.266999999999998 C 18.884 12.180999999999997 19.051000000000002 11.585999999999999 19.051000000000002 10.904999999999998 L 19.051000000000002 3.7479999999999976 L 11.413000000000002 13.828999999999997 C 11.130000000000003 14.197999999999997 10.761000000000003 14.452999999999998 10.221000000000002 14.452999999999998 L 0 14.453 L 0 12.494 L 1.93 12.267 C 2.61 12.166 2.867 11.82 2.867 10.875 L 2.867 3.551 C 2.867 2.682 2.63 2.264 1.901 2.158 L 0 1.932 L 0 0 Z" stroke-linecap="round" />
</g>
</g>
</g>
</svg>