<?xml version="1.0" encoding="UTF-8" standalone="no" ?>
<!DOCTYPE svg PUBLIC "-//W3C//DTD SVG 1.1//EN" "http://www.w3.org/Graphics/SVG/1.1/DTD/svg11.dtd">
<svg xmlns="http://www.w3.org/2000/svg" xmlns:xlink="http://www.w3.org/1999/xlink" version="1.1" width="620" height="200" viewBox="0 0 620 200" xml:space="preserve">
<desc>Created with Fabric.js 4.6.0</desc>
<defs>
</defs>
<g transform="matrix(0.58 0 0 0.58 310 100)" id="zeZlGeY1zZOw1aKRUT1GX"  >
<g style="" vector-effect="non-scaling-stroke"   >
		<g transform="matrix(3.57 0 0 3.57 -276.67 11.72)" id="1oSUbENNggX-UjHf6Gwgm"  >
<path style="stroke: none; stroke-width: 1; stroke-dasharray: none; stroke-linecap: butt; stroke-dashoffset: 0; stroke-linejoin: miter; stroke-miterlimit: 4; fill: rgb(0,0,0); fill-rule: nonzero; opacity: 1;" vector-effect="non-scaling-stroke"  transform=" translate(-72.7, -30.79)" d="M 2.5 54.2188 L 31.1 54.2188 L 33.300000000000004 45.7188 L 26.400000000000006 45.7188 L 33.300000000000004 17.4188 L 38 17.4188 L 37.6 22.1188 L 47.5 22.1188 L 51.5 7.2188 L 3.9 7.2188 L 0 22.1188 L 10.3 22.1188 L 12.4 17.3188 L 17.5 17.3188 L 10.7 45.7188 L 4.8 45.7188 z M 77.9 54.2188 L 59.4 54.2188 L 56.8 15.718800000000002 L 53 15.718800000000002 L 55.2 7.218800000000002 L 79.7 7.218800000000002 L 77.5 15.718800000000002 L 73.3 15.718800000000002 L 73.2 39.8188 L 87.3 15.718800000000002 L 82.6 15.718800000000002 L 85.3 7.218800000000002 L 107.4 7.218800000000002 z M 142 21.1187 C 142 16.4187 143.5 12.2187 145.4 7.918700000000001 C 137.1 6.418700000000001 128.1 5.8187000000000015 119.9 7.918700000000001 C 115.30000000000001 9.1187 110.5 12.0187 107.9 16.1187 C 104.9 20.7187 105.60000000000001 26.6187 109.30000000000001 30.518700000000003 C 111.20000000000002 32.4187 113.50000000000001 33.718700000000005 115.9 34.8187 C 117.80000000000001 35.7187 121.10000000000001 37.1187 121.60000000000001 39.3187 C 123.00000000000001 44.9187 114.00000000000001 45.4187 110.50000000000001 44.3187 L 110.50000000000001 39.9187 L 101.10000000000001 39.9187 L 97.50000000000001 53.0187 C 105.90000000000002 55.118700000000004 114.70000000000002 55.8187 123.20000000000002 53.9187 C 128.3 52.7187 132.9 50.118700000000004 136.3 46.0187 C 139.10000000000002 42.5187 140.70000000000002 36.0187 137.70000000000002 32.2187 C 136.00000000000003 30.118699999999997 134.10000000000002 28.5187 131.8 27.2187 C 129.60000000000002 25.918699999999998 127.20000000000002 25.118699999999997 125.20000000000002 23.618699999999997 C 122.80000000000001 21.818699999999996 122.80000000000001 19.018699999999995 125.40000000000002 17.418699999999998 C 127.40000000000002 16.118699999999997 130.70000000000002 16.7187 132.90000000000003 17.118699999999997 L 133.30000000000004 21.018699999999995 L 142.00000000000003 21.018699999999995 z" stroke-linecap="round" />
</g>
		<g transform="matrix(3.57 0 0 3.57 251.87 -54.58)" id="3RmhFb6s7uGYYThZy5V97"  >
<path style="stroke: none; stroke-width: 1; stroke-dasharray: none; stroke-linecap: butt; stroke-dashoffset: 0; stroke-linejoin: miter; stroke-miterlimit: 4; fill: rgb(0,0,0); fill-rule: nonzero; opacity: 1;" vector-effect="non-scaling-stroke"  transform=" translate(-220.75, -12.22)" d="M 271 7.1188 C 267.1 5.6188 263.4 5.7188 259.4 6.7188 C 255.49999999999997 7.7188 252.7 9.918800000000001 249.59999999999997 12.3188 C 246.49999999999997 14.7188 243.19999999999996 17.1188 239.59999999999997 18.7188 C 235.89999999999998 20.318800000000003 231.69999999999996 22.018800000000002 227.69999999999996 20.4188 C 230.59999999999997 20.518800000000002 233.29999999999995 19.9188 235.79999999999995 18.3188 C 237.69999999999996 17.1188 240.99999999999994 14.6188 241.69999999999996 12.3188 L 238.39999999999995 12.3188 C 240.79999999999995 9.7188 243.79999999999995 7.7188 247.09999999999994 6.5188 L 245.49999999999994 4.6188 C 249.89999999999995 1.6188000000000002 254.69999999999993 0.21879999999999988 259.99999999999994 0.018800000000000594 C 262.49999999999994 -0.08119999999999941 264.99999999999994 0.2188000000000006 267.29999999999995 0.9188000000000006 C 269.79999999999995 1.6188000000000007 271.69999999999993 2.8188000000000004 273.49999999999994 4.618800000000001 z M 207.7 17.6187 C 206.29999999999998 17.6187 205.1 17.718700000000002 203.7 18.1187 C 202.39999999999998 18.5187 201.2 19.0187 199.89999999999998 19.5187 C 197.49999999999997 20.5187 195.2 21.8187 192.89999999999998 23.0187 C 191.89999999999998 23.5187 190.7 24.1187 189.59999999999997 24.3187 C 188.39999999999998 24.5187 186.79999999999995 24.5187 185.69999999999996 24.0187 C 184.49999999999997 23.418699999999998 183.49999999999997 22.8187 182.49999999999997 21.918699999999998 C 181.49999999999997 21.0187 180.49999999999997 20.118699999999997 179.49999999999997 19.418699999999998 C 178.39999999999998 18.7187 177.29999999999998 18.2187 176.19999999999996 17.5187 C 176.69999999999996 17.5187 179.29999999999995 17.418699999999998 178.59999999999997 16.3187 C 177.99999999999997 15.4187 176.59999999999997 15.018699999999999 175.49999999999997 14.8187 C 172.99999999999997 14.3187 170.49999999999997 14.3187 167.99999999999997 14.3187 C 170.09999999999997 12.518699999999999 172.39999999999998 11.6187 175.19999999999996 11.6187 C 177.79999999999995 11.6187 179.89999999999995 12.8187 182.09999999999997 14.1187 C 183.19999999999996 14.8187 184.49999999999997 16.0187 185.59999999999997 16.718700000000002 C 186.69999999999996 17.4187 187.89999999999998 17.818700000000003 189.09999999999997 18.218700000000002 C 191.39999999999998 19.018700000000003 194.29999999999995 18.6187 196.59999999999997 17.818700000000003 C 198.49999999999997 17.118700000000004 200.19999999999996 16.318700000000003 202.29999999999995 16.318700000000003 C 204.19999999999996 16.018700000000003 205.99999999999994 16.518700000000003 207.69999999999996 17.618700000000004 z" stroke-linecap="round" />
</g>
		<g transform="matrix(3.57 0 0 3.57 277.75 8.39)" id="UhoI9-mmbyhPTWkv4MVZo"  >
<path style="stroke: none; stroke-width: 1; stroke-dasharray: none; stroke-linecap: butt; stroke-dashoffset: 0; stroke-linejoin: miter; stroke-miterlimit: 4; fill: rgb(0,0,0); fill-rule: nonzero; opacity: 1;" vector-effect="non-scaling-stroke"  transform=" translate(-228, -29.87)" d="M 188.1 37.7188 C 192.2 37.5188 195.6 33.5188 197.9 30.518800000000002 C 200.4 27.318800000000003 202.1 22.518800000000002 206 20.7188 C 211.8 18.1188 217.9 20.318800000000003 223.2 23.1188 C 228.2 25.6188 235.2 25.2188 240.2 23.0188 C 245.7 20.6188 249.89999999999998 16.5188 254.6 13.018799999999999 C 259 9.718799999999998 264.7 7.418799999999999 271.5 9.218799999999998 L 274.5 5.6187999999999985 L 275.1 11.518799999999999 L 285.70000000000005 22.218799999999998 L 283.6 24.718799999999998 L 276.8 24.718799999999998 L 276.8 23.0188 C 274.8 21.6188 272.7 20.6188 270.2 20.918799999999997 C 267.59999999999997 21.218799999999998 264.8 22.418799999999997 265.2 25.5188 C 265.5 27.6188 268.5 29.5188 270 30.6188 C 272.1 32.0188 274.3 33.3188 276.5 34.7188 C 281 37.5188 285.3 40.6188 289.5 43.918800000000005 C 293.4 47.018800000000006 297.4 50.2188 300.4 54.11880000000001 L 291.2 52.31880000000001 C 292.9 51.11880000000001 290.9 49.81880000000001 289.8 48.91880000000001 C 288.40000000000003 47.81880000000001 287 46.91880000000001 285.40000000000003 46.01880000000001 C 282.3 44.31880000000001 279.00000000000006 43.41880000000001 275.6 42.618800000000014 C 269.1 41.01880000000001 260.70000000000005 40.01880000000001 255.00000000000003 44.118800000000014 C 254.80000000000004 44.218800000000016 254.60000000000002 44.41880000000001 254.40000000000003 44.51880000000001 L 251.20000000000005 41.81880000000001 C 240.90000000000003 45.31880000000001 229.40000000000003 44.41880000000001 219.90000000000003 39.21880000000001 C 216.00000000000003 41.91880000000001 211.50000000000003 42.518800000000006 207.00000000000003 43.018800000000006 C 202.70000000000002 43.518800000000006 198.20000000000002 43.21880000000001 193.80000000000004 42.8188 C 183.30000000000004 51.5188 169.00000000000003 56.61880000000001 155.60000000000002 52.0188 L 164.60000000000002 49.7188 L 164.60000000000002 51.7188 C 174.3 51.7188 182.40000000000003 44.918800000000005 188.10000000000002 37.7188 z" stroke-linecap="round" />
</g>
</g>
</g>
</svg>